<?xml version="1.0" standalone="no"?>
<!DOCTYPE svg PUBLIC "-//W3C//DTD SVG 20010904//EN"
 "http://www.w3.org/TR/2001/REC-SVG-20010904/DTD/svg10.dtd">
<svg version="1.0" xmlns="http://www.w3.org/2000/svg"
 width="666.000000pt" height="588.000000pt" viewBox="0 0 666.000000 588.000000"
 preserveAspectRatio="xMidYMid meet">
<metadata>
Created by potrace 1.16, written by Peter Selinger 2001-2019
</metadata>
<g transform="translate(0.000000,588.000000) scale(0.100000,-0.100000)"
fill="#000000" stroke="none">
<path d="M1141 5717 c-46 -4 -114 -18 -151 -31 -148 -51 -314 -197 -382 -336
-45 -91 -58 -143 -57 -235 0 -177 77 -332 277 -562 97 -111 128 -155 176 -252
78 -154 97 -325 52 -453 -48 -137 -132 -257 -210 -303 -171 -100 -337 34 -339
275 -1 79 1 90 31 143 39 69 33 75 -59 58 -70 -12 -136 -43 -187 -87 -34 -29
-36 -35 -40 -104 -5 -91 10 -165 54 -255 72 -151 164 -215 318 -223 254 -13
447 121 563 389 52 119 76 242 77 394 2 244 -60 381 -279 616 -197 213 -253
387 -174 549 71 145 274 287 426 297 63 5 71 3 100 -21 41 -35 73 -120 73
-194 0 -83 -23 -168 -79 -292 l-49 -110 25 -6 c40 -10 124 5 182 33 46 22 56
33 76 77 62 140 72 331 23 438 -35 76 -97 141 -160 168 -63 27 -173 38 -287
27z"/>
<path d="M3053 5611 c-53 -24 -80 -66 -145 -217 -98 -233 -181 -507 -253 -840
-3 -12 -23 -33 -46 -48 -61 -41 -244 -136 -260 -136 -11 0 -14 21 -15 103 0
92 -3 108 -30 161 -35 73 -105 144 -170 177 -72 35 -177 33 -259 -4 -76 -36
-87 -45 -150 -142 -75 -114 -102 -173 -132 -283 -23 -88 -25 -110 -21 -232 6
-154 24 -219 83 -287 45 -53 101 -75 192 -75 207 0 373 145 449 395 11 36 22
50 42 58 47 17 125 60 197 108 39 25 76 50 84 55 11 7 12 -8 7 -95 -13 -187
22 -366 87 -444 42 -51 81 -68 159 -68 88 0 153 32 251 123 136 127 238 304
278 480 12 51 21 60 68 60 39 0 134 23 209 51 29 10 56 19 60 19 5 0 -9 -35
-30 -77 -54 -112 -70 -185 -66 -307 4 -120 29 -186 102 -264 160 -171 413
-130 715 115 l33 27 -41 -83 c-47 -93 -50 -124 -10 -129 19 -2 33 5 51 26 13
16 118 185 234 376 184 306 211 346 229 340 11 -3 57 -9 102 -11 55 -3 86 -10
94 -19 23 -28 11 -84 -37 -173 -157 -289 -167 -312 -167 -370 0 -64 22 -124
61 -164 43 -46 81 -61 152 -61 58 0 75 5 135 38 149 81 311 251 467 485 78
118 86 156 34 156 -26 0 -38 -11 -83 -75 -89 -124 -242 -299 -313 -356 -140
-113 -248 -125 -266 -29 -10 53 16 113 115 263 49 75 95 150 100 165 28 73 0
200 -55 255 l-35 35 -80 -6 c-45 -3 -94 -1 -109 5 l-28 9 19 42 c11 26 19 65
19 101 0 129 -78 199 -169 151 -69 -35 -159 -173 -168 -258 -4 -34 0 -50 21
-80 l26 -37 -85 -163 c-79 -153 -90 -168 -177 -255 -115 -115 -220 -194 -318
-241 -64 -31 -85 -36 -145 -36 -121 1 -192 60 -214 180 l-8 45 106 72 c241
162 340 257 396 375 37 76 40 167 9 210 -30 41 -80 63 -145 63 -110 0 -188
-37 -317 -153 -62 -56 -80 -66 -168 -94 -100 -32 -165 -46 -261 -58 -51 -7
-52 -6 -58 22 -12 56 -38 118 -58 141 -61 67 -227 -35 -227 -140 0 -49 23 -84
71 -109 35 -18 38 -22 33 -52 -32 -174 -156 -410 -248 -466 -74 -46 -138 -33
-172 36 -16 32 -19 61 -19 183 l0 145 77 155 c181 368 330 838 332 1050 l1 95
-50 3 c-33 1 -64 -5 -92 -17z m1119 -888 c26 -24 24 -93 -6 -151 -13 -26 -53
-74 -87 -107 -78 -74 -207 -170 -217 -161 -12 12 27 139 68 222 44 90 112 173
162 197 42 21 57 21 80 0z m-2061 -34 c49 -49 74 -171 58 -283 -13 -94 -19
-100 -96 -93 -69 7 -107 23 -139 59 -38 41 -47 70 -48 156 l-1 84 40 35 c74
64 147 81 186 42z m-322 -356 c22 -47 72 -103 118 -130 34 -19 64 -27 123 -32
l79 -6 -34 -72 c-61 -126 -163 -192 -249 -162 -58 20 -88 83 -94 194 -4 82 20
235 37 235 4 0 13 -12 20 -27z"/>
<path d="M1215 3150 c-224 -20 -453 -103 -634 -231 -46 -32 -73 -58 -77 -75
-9 -35 13 -107 46 -145 l27 -33 69 63 c80 73 178 151 191 151 5 0 -17 -98 -49
-217 -96 -359 -263 -994 -318 -1213 -76 -297 -132 -441 -202 -510 l-32 -33 34
-29 c43 -35 101 -52 155 -44 68 11 100 37 139 118 52 106 76 197 184 698 l8
35 111 16 c241 35 427 119 609 277 244 209 373 529 320 791 -45 221 -184 358
-386 381 -47 5 -92 9 -100 8 -8 0 -51 -4 -95 -8z m99 -125 c109 -18 203 -104
238 -218 18 -59 20 -85 15 -176 -9 -168 -47 -285 -138 -420 -127 -190 -331
-331 -566 -392 -42 -10 -78 -17 -81 -14 -12 12 71 409 188 888 27 115 50 217
50 227 0 9 -7 23 -15 30 -8 7 -15 16 -15 19 0 10 119 51 176 60 49 9 73 8 148
-4z"/>
<path d="M4413 3030 c-64 -15 -78 -39 -138 -224 -35 -106 -47 -131 -66 -140
-13 -5 -108 -11 -212 -11 -179 -2 -188 -3 -211 -24 -57 -54 -37 -78 90 -112
67 -17 97 -20 197 -15 64 3 117 4 117 2 0 -2 -12 -55 -26 -117 -14 -63 -43
-203 -64 -311 -38 -196 -38 -198 -86 -265 -63 -89 -211 -267 -266 -319 -108
-104 -199 -152 -263 -140 -30 6 -39 14 -51 43 -26 60 -6 111 106 278 105 156
113 176 108 259 -5 80 -32 142 -75 176 -25 20 -36 22 -107 17 -43 -3 -90 -1
-106 4 l-27 10 20 41 c49 98 13 243 -64 262 -54 13 -89 0 -142 -56 -99 -101
-139 -241 -85 -294 l24 -25 -90 -178 c-100 -195 -181 -307 -320 -439 -99 -94
-148 -105 -181 -42 -24 46 -18 100 40 386 30 148 53 275 50 283 -4 10 -18 12
-61 6 l-55 -7 20 41 c42 81 13 153 -74 184 -66 23 -112 16 -204 -29 -99 -49
-251 -199 -330 -328 -99 -160 -156 -379 -134 -511 13 -78 52 -149 96 -176 64
-39 202 -13 313 59 56 37 164 143 164 163 0 5 4 9 9 9 4 0 11 -27 14 -60 7
-81 42 -150 87 -173 65 -34 183 -9 254 54 l36 31 -11 -31 c-6 -17 -8 -38 -5
-46 8 -22 52 -18 76 7 18 19 353 565 421 686 19 34 28 41 44 36 11 -4 60 -9
108 -11 81 -5 89 -7 99 -29 17 -36 -3 -89 -90 -244 -110 -196 -122 -226 -122
-293 0 -140 113 -243 244 -221 131 21 308 168 484 401 26 34 50 62 53 63 3 0
2 -28 -3 -62 -20 -138 11 -249 90 -318 49 -44 93 -60 165 -60 82 0 179 65 319
213 l78 82 0 -50 c2 -154 102 -250 260 -250 53 0 86 5 113 19 53 26 127 95
172 161 21 30 40 53 43 51 6 -6 -28 -147 -103 -431 -196 -744 -189 -714 -174
-742 36 -67 152 -99 183 -50 8 12 42 161 76 332 128 643 222 1041 317 1328 87
268 85 348 -9 364 -38 6 -131 -18 -160 -41 -16 -12 -17 -16 -1 -54 15 -39 15
-50 0 -137 -35 -209 -238 -549 -368 -616 -108 -55 -169 21 -147 183 4 35 42
163 84 284 81 239 95 317 62 350 -24 25 -105 29 -173 10 -51 -15 -56 -19 -51
-39 22 -74 21 -77 -60 -356 l-39 -135 -108 -113 c-159 -165 -255 -223 -332
-202 -70 20 -106 86 -106 196 0 61 6 86 40 165 108 254 217 549 260 703 l28
100 114 3 c66 2 158 -4 219 -13 58 -8 117 -15 132 -15 32 0 58 32 58 72 0 25
-6 29 -81 53 -100 31 -242 55 -333 55 l-68 0 6 38 c3 20 9 91 12 157 l7 121
-27 12 c-30 13 -55 14 -103 2z m-2092 -881 c11 -21 8 -65 -7 -103 -6 -15 -3
-17 12 -13 10 3 34 9 53 12 l33 7 -7 -53 c-12 -90 -73 -335 -91 -371 -25 -48
-132 -151 -184 -178 -60 -31 -113 -31 -142 -2 -21 20 -23 32 -23 115 1 117 21
195 85 322 60 120 124 209 182 252 50 38 73 41 89 12z"/>
</g>
</svg>
